<svg width="216" height="71" viewBox="0 0 216 71" fill="none" xmlns="http://www.w3.org/2000/svg">
<rect y="14" width="206" height="42" rx="3" fill="#00094A"/>
<path d="M20.4769 40.144C19.6209 40.144 18.8449 39.96 18.1489 39.592C17.4609 39.216 16.9169 38.7 16.5169 38.044C16.1249 37.38 15.9289 36.632 15.9289 35.8C15.9289 34.968 16.1249 34.224 16.5169 33.568C16.9169 32.904 17.4609 32.388 18.1489 32.02C18.8449 31.644 19.6249 31.456 20.4889 31.456C21.2169 31.456 21.8729 31.584 22.4569 31.84C23.0489 32.096 23.5449 32.464 23.9449 32.944L22.6969 34.096C22.1289 33.44 21.4249 33.112 20.5849 33.112C20.0649 33.112 19.6009 33.228 19.1929 33.46C18.7849 33.684 18.4649 34 18.2329 34.408C18.0089 34.816 17.8969 35.28 17.8969 35.8C17.8969 36.32 18.0089 36.784 18.2329 37.192C18.4649 37.6 18.7849 37.92 19.1929 38.152C19.6009 38.376 20.0649 38.488 20.5849 38.488C21.4249 38.488 22.1289 38.156 22.6969 37.492L23.9449 38.644C23.5449 39.132 23.0489 39.504 22.4569 39.76C21.8649 40.016 21.2049 40.144 20.4769 40.144ZM32.856 40L32.844 34.972L30.372 39.112H29.508L27.036 35.068V40H25.212V31.6H26.82L29.964 36.82L33.06 31.6H34.668L34.68 40H32.856ZM40.7747 40.144C39.9027 40.144 39.1147 39.956 38.4107 39.58C37.7147 39.204 37.1667 38.688 36.7667 38.032C36.3747 37.368 36.1787 36.624 36.1787 35.8C36.1787 34.976 36.3747 34.236 36.7667 33.58C37.1667 32.916 37.7147 32.396 38.4107 32.02C39.1147 31.644 39.9027 31.456 40.7747 31.456C41.6467 31.456 42.4307 31.644 43.1267 32.02C43.8227 32.396 44.3707 32.916 44.7707 33.58C45.1707 34.236 45.3707 34.976 45.3707 35.8C45.3707 36.624 45.1707 37.368 44.7707 38.032C44.3707 38.688 43.8227 39.204 43.1267 39.58C42.4307 39.956 41.6467 40.144 40.7747 40.144ZM40.7747 38.488C41.2707 38.488 41.7187 38.376 42.1187 38.152C42.5187 37.92 42.8307 37.6 43.0547 37.192C43.2867 36.784 43.4027 36.32 43.4027 35.8C43.4027 35.28 43.2867 34.816 43.0547 34.408C42.8307 34 42.5187 33.684 42.1187 33.46C41.7187 33.228 41.2707 33.112 40.7747 33.112C40.2787 33.112 39.8307 33.228 39.4307 33.46C39.0307 33.684 38.7147 34 38.4827 34.408C38.2587 34.816 38.1467 35.28 38.1467 35.8C38.1467 36.32 38.2587 36.784 38.4827 37.192C38.7147 37.6 39.0307 37.92 39.4307 38.152C39.8307 38.376 40.2787 38.488 40.7747 38.488ZM53.171 33.184H50.483V40H48.563V33.184H45.887V31.6H53.171V33.184ZM58.0277 31.6C58.7717 31.6 59.4157 31.724 59.9597 31.972C60.5117 32.22 60.9357 32.572 61.2317 33.028C61.5277 33.484 61.6757 34.024 61.6757 34.648C61.6757 35.264 61.5277 35.804 61.2317 36.268C60.9357 36.724 60.5117 37.076 59.9597 37.324C59.4157 37.564 58.7717 37.684 58.0277 37.684H56.3357V40H54.3917V31.6H58.0277ZM57.9197 36.1C58.5037 36.1 58.9477 35.976 59.2517 35.728C59.5557 35.472 59.7077 35.112 59.7077 34.648C59.7077 34.176 59.5557 33.816 59.2517 33.568C58.9477 33.312 58.5037 33.184 57.9197 33.184H56.3357V36.1H57.9197ZM69.4621 38.44V40H62.9581V31.6H69.3061V33.16H64.8901V34.984H68.7901V36.496H64.8901V38.44H69.4621ZM77.4523 33.184H74.7643V40H72.8443V33.184H70.1683V31.6H77.4523V33.184ZM82.7409 34.36C83.7649 34.36 84.5489 34.588 85.0929 35.044C85.6449 35.5 85.9209 36.176 85.9209 37.072C85.9209 38.024 85.6169 38.752 85.0089 39.256C84.4089 39.752 83.5609 40 82.4649 40H78.6729V31.6H80.6049V34.36H82.7409ZM82.3569 38.56C82.8609 38.56 83.2529 38.436 83.5329 38.188C83.8209 37.94 83.9649 37.58 83.9649 37.108C83.9649 36.236 83.4289 35.8 82.3569 35.8H80.6049V38.56H82.3569ZM96.5398 35.62C97.0518 35.772 97.4438 36.02 97.7158 36.364C97.9878 36.708 98.1238 37.132 98.1238 37.636C98.1238 38.38 97.8398 38.96 97.2718 39.376C96.7118 39.792 95.9078 40 94.8598 40H90.7198V31.6H94.6318C95.6078 31.6 96.3678 31.788 96.9118 32.164C97.4558 32.54 97.7278 33.076 97.7278 33.772C97.7278 34.188 97.6238 34.556 97.4158 34.876C97.2078 35.188 96.9158 35.436 96.5398 35.62ZM92.6518 35.08H94.4638C94.8878 35.08 95.2078 34.996 95.4238 34.828C95.6398 34.652 95.7478 34.396 95.7478 34.06C95.7478 33.732 95.6358 33.48 95.4118 33.304C95.1958 33.128 94.8798 33.04 94.4638 33.04H92.6518V35.08ZM94.7878 38.56C95.6998 38.56 96.1558 38.2 96.1558 37.48C96.1558 36.784 95.6998 36.436 94.7878 36.436H92.6518V38.56H94.7878ZM99.6612 31.6H101.593V37.072L105.601 31.6H107.425V40H105.505V34.54L101.497 40H99.6612V31.6ZM118.122 38.416V41.74H116.322V40H110.394V41.74H108.594L108.606 38.416H108.942C109.446 38.4 109.802 38.032 110.01 37.312C110.218 36.592 110.346 35.564 110.394 34.228L110.49 31.6H116.946V38.416H118.122ZM112.11 34.408C112.07 35.408 111.986 36.248 111.858 36.928C111.73 37.6 111.534 38.096 111.27 38.416H115.026V33.184H112.146L112.11 34.408ZM125.935 38.44V40H119.431V31.6H125.779V33.16H121.363V34.984H125.263V36.496H121.363V38.44H125.935ZM131.49 40.144C130.618 40.144 129.83 39.956 129.126 39.58C128.43 39.204 127.882 38.688 127.482 38.032C127.09 37.368 126.894 36.624 126.894 35.8C126.894 34.976 127.09 34.236 127.482 33.58C127.882 32.916 128.43 32.396 129.126 32.02C129.83 31.644 130.618 31.456 131.49 31.456C132.362 31.456 133.146 31.644 133.842 32.02C134.538 32.396 135.086 32.916 135.486 33.58C135.886 34.236 136.086 34.976 136.086 35.8C136.086 36.624 135.886 37.368 135.486 38.032C135.086 38.688 134.538 39.204 133.842 39.58C133.146 39.956 132.362 40.144 131.49 40.144ZM131.49 38.488C131.986 38.488 132.434 38.376 132.834 38.152C133.234 37.92 133.546 37.6 133.77 37.192C134.002 36.784 134.118 36.32 134.118 35.8C134.118 35.28 134.002 34.816 133.77 34.408C133.546 34 133.234 33.684 132.834 33.46C132.434 33.228 131.986 33.112 131.49 33.112C130.994 33.112 130.546 33.228 130.146 33.46C129.746 33.684 129.43 34 129.198 34.408C128.974 34.816 128.862 35.28 128.862 35.8C128.862 36.32 128.974 36.784 129.198 37.192C129.43 37.6 129.746 37.92 130.146 38.152C130.546 38.376 130.994 38.488 131.49 38.488Z" fill="white"/>
<circle cx="180.5" cy="35.5" r="13.5" fill="white"/>
<circle cx="180.5" cy="35.5" r="24.25" stroke="white" stroke-width="0.5"/>
<circle opacity="0.5" cx="180.5" cy="35.5" r="35.4" stroke="white" stroke-width="0.2"/>
<path d="M186 35.7631L177.75 40.5263V31L186 35.7631Z" fill="#00094A"/>
</svg>
